<svg viewBox="0 0 200 180" xmlns="http://www.w3.org/2000/svg"><g fill="none"><path d="m0 0h200v180h-200z"/><g stroke="#e3e3e3" stroke-width="3"><path d="m81.75 57v-14l25.67-21 11.16 3.33s-1.33 10 6.5 12.33 12.5-7 12.5-7l41.5 12.34v39.68s-11.33 3.17-14.83 6.17-6.83 13.5-6.83 13.5h-10.28" stroke-miterlimit="10"/><path d="m81.75 43.02h97.33" stroke-miterlimit="10"/><circle cx="139.25" cy="57.68" r="6.33" stroke-miterlimit="10"/><circle cx="165.92" cy="68.02" r="6.67" stroke-miterlimit="10"/><g stroke-linecap="round" stroke-linejoin="round"><path d="m20.92 93.15h122.5v20.5s-5.83.83-5.83 9.5c0 9.83 5.83 10.5 5.83 10.5v24.5h-122.5z"/><path d="m107.8 49.21 11.62 14.44s-6.83 5.83-1.83 12.33c5.68 7.38 12.33.67 12.33.67l13.5 16.5h-122.5l33.5-18a10.78 10.78 0 0 0 12.5 2c6.69-3.13 5.5-11 5.5-11z"/><ellipse cx="94.67" cy="73.57" rx="5.25" ry="8.42"/><ellipse cx="51.92" cy="110.24" rx="6.67" ry="9.08"/><ellipse cx="102" cy="136.65" rx="9.25" ry="11"/></g></g></g></svg>